<svg height="512pt" viewBox="0 -5 512.00003 512" width="512pt" xmlns="http://www.w3.org/2000/svg"><path d="m95.3125 501.640625h-54.835938c-4.25 0-7.695312-3.445313-7.695312-7.695313v-50.941406c0-4.25 3.445312-7.695312 7.695312-7.695312h54.835938c4.25 0 7.695312 3.445312 7.695312 7.695312v50.941406c0 4.25-3.445312 7.695313-7.695312 7.695313zm0 0" fill="#4b5055"/><path d="m465.671875 501.640625h-54.839844c-4.25 0-7.695312-3.445313-7.695312-7.695313v-50.941406c0-4.25 3.445312-7.695312 7.695312-7.695312h54.839844c4.25 0 7.695313 3.445312 7.695313 7.695312v50.941406c0 4.25-3.445313 7.695313-7.695313 7.695313zm0 0" fill="#4b5055"/><path d="m335.878906 1.648438c-3.460937-2.667969-8.429687-2.03125-11.101562 1.429687l-67.699219 87.710937-69.933594-87.804687c-2.722656-3.417969-7.699219-3.984375-11.117187-1.257813-3.417969 2.722657-3.980469 7.699219-1.257813 11.117188l76.21875 95.695312c1.5 1.886719 3.78125 2.984376 6.1875 2.984376h.0625c2.429688-.019532 4.71875-1.152344 6.203125-3.078126l73.867188-95.695312c2.667968-3.460938 2.027344-8.429688-1.429688-11.101562zm0 0" fill="#4b5055"/><path d="m512 134.785156v297.472656c0 16.636719-13.484375 30.117188-30.121094 30.117188h-451.757812c-16.636719 0-30.121094-13.480469-30.121094-30.117188v-297.472656c0-16.636718 13.484375-30.121094 30.121094-30.121094h451.757812c16.636719 0 30.121094 13.484376 30.121094 30.121094zm0 0" fill="#4b5055"/><path d="m512 134.785156v297.472656c0 16.636719-13.484375 30.117188-30.121094 30.117188h-420.109375c-16.636719 0-30.121093-13.480469-30.121093-30.117188v-297.472656c0-16.636718 13.484374-30.121094 30.121093-30.121094h420.109375c16.636719 0 30.121094 13.484376 30.121094 30.121094zm0 0" fill="#5a5f64"/><path d="m0 147.085938h512v259.683593h-512zm0 0" fill="#2476ed"/><path d="m31.648438 147.085938h480.351562v259.683593h-480.351562zm0 0" fill="#5596fb"/><path d="m389.144531 433.964844c0 6.488281-5.257812 11.746094-11.746093 11.746094-6.484376 0-11.742188-5.257813-11.742188-11.746094 0-6.484375 5.257812-11.742188 11.742188-11.742188 6.488281 0 11.746093 5.257813 11.746093 11.742188zm0 0" fill="#35e298"/><path d="m448.34375 433.964844c0 6.488281-5.257812 11.746094-11.742188 11.746094-6.488281 0-11.746093-5.257813-11.746093-11.746094 0-6.484375 5.257812-11.742188 11.746093-11.742188 6.484376 0 11.742188 5.257813 11.742188 11.742188zm0 0" fill="#ffc14f"/><path d="m410.914062 341.023438-33.664062 9.914062c-10.878906 3.207031-15.152344 16.332031-8.230469 25.320312l21.40625 27.820313c.675781.875 1.242188 1.78125 1.707031 2.691406h-272.265624c.464843-.910156 1.03125-1.816406 1.707031-2.691406l21.40625-27.820313c6.921875-8.988281 2.648437-22.113281-8.230469-25.320312l-33.664062-9.914062c-15.433594-4.546876-15.433594-26.417969 0-30.964844l33.664062-9.917969c10.878906-3.207031 15.152344-16.328125 8.230469-25.316406l-21.40625-27.820313c-9.820313-12.746094 3.039062-30.4375 18.199219-25.046875l33.0625 11.765625c10.6875 3.808594 21.859374-4.304687 21.542968-15.648437l-.96875-35.085938c-.445312-16.078125 20.347656-22.839843 29.441406-9.558593l19.835938 28.949218c6.414062 9.355469 20.210938 9.355469 26.625 0l19.835938-28.949218c9.09375-13.28125 29.886718-6.519532 29.441406 9.558593l-.96875 35.085938c-.316406 11.34375 10.855468 19.457031 21.542968 15.648437l33.0625-11.765625c15.160157-5.390625 28.019532 12.300781 18.199219 25.046875l-21.40625 27.820313c-6.921875 8.988281-2.648437 22.109375 8.230469 25.316406l33.664062 9.917969c15.433594 4.546875 15.433594 26.417968 0 30.964844zm0 0" fill="#fb5858"/><g fill="#ffb52d"><path d="m78.273438 195.234375c-8.519532 0-15.03125 3.609375-15.03125 13.527344v14.230469c0 9.921874 6.511718 13.527343 15.03125 13.527343 8.417968 0 15.03125-3.605469 15.03125-13.527343v-14.230469c0-9.917969-6.613282-13.527344-15.03125-13.527344zm5.011718 27.757813c0 3.308593-1.90625 4.808593-5.011718 4.808593-3.105469 0-4.910157-1.5-4.910157-4.808593v-14.230469c0-3.304688 1.804688-4.808594 4.910157-4.808594 3.105468 0 5.011718 1.503906 5.011718 4.808594zm0 0"/><path d="m78.371094 164.171875c0-3.207031-3.105469-5.3125-5.910156-5.3125-1.804688 0-3.40625.800781-4.207032 2.507813l-35.175781 72.25c-.300781.597656-.5 1.300781-.5 1.902343 0 2.503907 2.207031 5.3125 5.613281 5.3125 1.902344 0 3.804688-1.003906 4.507813-2.507812l35.273437-72.25c.300782-.601563.398438-1.300781.398438-1.902344zm0 0"/><path d="m47.308594 190.726562v-14.230468c0-9.921875-6.613282-13.527344-15.03125-13.527344-8.515625 0-15.03125 3.605469-15.03125 13.527344v14.230468c0 9.917969 6.515625 13.527344 15.03125 13.527344 8.417968 0 15.03125-3.609375 15.03125-13.527344zm-10.019532 0c0 3.304688-1.90625 4.808594-5.011718 4.808594-3.105469 0-4.910156-1.503906-4.910156-4.808594v-14.230468c0-3.304688 1.804687-4.808594 4.910156-4.808594 3.105468 0 5.011718 1.503906 5.011718 4.808594zm0 0"/><path d="m479.128906 212.828125c0-3.519531-3.410156-5.828125-6.488281-5.828125-1.980469 0-3.742187.878906-4.621094 2.746094l-38.601562 79.296875c-.332031.660156-.550781 1.429687-.550781 2.089843 0 2.75 2.421874 5.828126 6.160156 5.828126 2.089844 0 4.179687-1.097657 4.949218-2.75l38.710938-79.292969c.328125-.660157.441406-1.429688.441406-2.089844zm0 0"/><path d="m479.015625 246.917969c-9.347656 0-16.496094 3.960937-16.496094 14.847656v15.617187c0 10.890626 7.148438 14.847657 16.496094 14.847657 9.238281 0 16.5-3.957031 16.5-14.847657v-15.617187c0-10.886719-7.261719-14.847656-16.5-14.847656zm5.5 30.464843c0 3.628907-2.089844 5.28125-5.5 5.28125-3.40625 0-5.386719-1.648437-5.386719-5.28125v-15.617187c0-3.628906 1.980469-5.277344 5.386719-5.277344 3.410156 0 5.5 1.648438 5.5 5.277344zm0 0"/><path d="m445.035156 241.972656v-15.617187c0-10.890625-7.257812-14.847657-16.496094-14.847657-9.347656 0-16.496093 3.957032-16.496093 14.847657v15.617187c0 10.886719 7.148437 14.847656 16.496093 14.847656 9.238282 0 16.496094-3.960937 16.496094-14.847656zm-11 0c0 3.628906-2.089844 5.277344-5.496094 5.277344-3.410156 0-5.390624-1.648438-5.390624-5.277344v-15.617187c0-3.628907 1.980468-5.28125 5.390624-5.28125 3.40625 0 5.496094 1.648437 5.496094 5.28125zm0 0"/></g><path d="m300.097656 308.769531c-15.839844 0-27.960937 6.84375-27.960937 25.226563v28.355468c0 18.578126 12.121093 25.226563 27.960937 25.226563 15.644532 0 27.769532-6.648437 27.769532-25.226563v-28.355468c0-18.382813-12.125-25.226563-27.769532-25.226563zm11.148438 53.582031c0 7.234376-4.304688 10.5625-11.148438 10.5625s-10.949218-3.324218-10.949218-10.5625v-28.355468c0-7.234375 4.105468-10.558594 10.949218-10.558594s11.148438 3.324219 11.148438 10.558594zm0 0" fill="#c42d2d"/><path d="m239.671875 297.625v-28.355469c0-18.382812-12.125-25.226562-27.769531-25.226562-15.839844 0-27.960938 6.84375-27.960938 25.226562v28.355469c0 18.378906 12.121094 25.226562 27.960938 25.226562 15.644531 0 27.769531-6.847656 27.769531-25.226562zm-16.621094 0c0 7.234375-4.304687 10.558594-11.148437 10.558594s-10.949219-3.324219-10.949219-10.558594v-28.355469c0-7.234375 4.105469-10.558593 10.949219-10.558593s11.148437 3.324218 11.148437 10.558593zm0 0" fill="#c42d2d"/><path d="m300.488281 245.019531c0-5.28125-5.277343-8.800781-9.777343-8.800781-2.933594 0-5.671876 1.371094-7.039063 4.105469l-70.398437 142.5625c-.390626.976562-.785157 2.148437-.785157 3.324219 0 4.105468 3.71875 8.601562 9.191407 8.601562 3.324218 0 6.457031-1.5625 7.628906-4.300781l70.398437-141.972657c.585938-1.171874.78125-2.347656.78125-3.519531zm0 0" fill="#c42d2d"/></svg>