<?xml version="1.0"?>
<svg xmlns="http://www.w3.org/2000/svg" id="Layer_1" data-name="Layer 1" viewBox="0 0 512 512" width="512" height="512"><title>campaign </title><path d="M359.18,201.11a36.825,36.825,0,0,1,0,73.65h-6.95V201.11Z" style="fill:#f8ec7d"/><polygon points="352.23 274.76 352.23 347.71 213.27 292.13 213.27 187.22 352.23 131.63 352.23 201.11 352.23 274.76" style="fill:#e48e66"/><rect x="191.04" y="187.22" width="22.23" height="104.91" style="fill:#f8ec7d"/><path d="M205.89,346.03a27.126,27.126,0,1,1-52.3,14.42l-18.83-68.32.46-1.35a27.6,27.6,0,0,0,8.57,1.35h47.25Z" style="fill:#f8ec7d"/><path d="M191.04,187.22V292.13H143.79A27.774,27.774,0,0,1,116,264.34V215.01a27.787,27.787,0,0,1,27.79-27.79Z" style="fill:#e48e66"/><path d="M283.07,44.07a6,6,0,0,0,4.242-10.243l-27.07-27.07a6,6,0,0,0-8.484,0l-27.07,27.07a6,6,0,1,0,8.484,8.485L249.04,26.445v50.6a6,6,0,0,0,12,0V25.36a6.074,6.074,0,0,0-.076-.911l17.864,17.863A5.979,5.979,0,0,0,283.07,44.07Z" style="fill:#63316d"/><path d="M224.687,469.688a6,6,0,0,0,0,8.485l27.07,27.07a6,6,0,0,0,8.484,0l27.07-27.07a6,6,0,1,0-8.484-8.485L262.96,485.555v-50.6a6,6,0,0,0-12,0v51.68a6.074,6.074,0,0,0,.076.911l-17.864-17.863A6,6,0,0,0,224.687,469.688Z" style="fill:#63316d"/><path d="M38.07,289.07a6,6,0,0,0,4.242-10.243L26.445,262.96h50.6a6,6,0,1,0,0-12H25.36a6.085,6.085,0,0,0-.911.076l17.863-17.863a6,6,0,0,0-8.484-8.485L6.758,251.757a6,6,0,0,0,0,8.486l27.07,27.069A5.979,5.979,0,0,0,38.07,289.07Z" style="fill:#63316d"/><path d="M505.242,251.757l-27.07-27.069a6,6,0,0,0-8.484,8.485l15.867,15.867h-50.6a6,6,0,1,0,0,12h51.68a6.085,6.085,0,0,0,.911-.076l-17.863,17.863a6,6,0,1,0,8.484,8.485l27.07-27.069a6,6,0,0,0,0-8.486Z" style="fill:#63316d"/><path d="M127.04,82.76a6,6,0,0,0-6-6H82.76a6,6,0,0,0-6,6v38.28a6,6,0,0,0,12,0V98.6l35.778,35.769a6,6,0,0,0,8.484-8.486L96.473,89.347a5.932,5.932,0,0,0-.719-.587H121.04A6,6,0,0,0,127.04,82.76Z" style="fill:#63316d"/><path d="M384.96,429.24a6,6,0,0,0,6,6h38.28a6,6,0,0,0,6-6V390.96a6,6,0,0,0-12,0V413.4l-35.778-35.769a6,6,0,0,0-8.484,8.486l36.549,36.54a5.932,5.932,0,0,0,.719.587H390.96A6,6,0,0,0,384.96,429.24Z" style="fill:#63316d"/><path d="M435.24,121.04V82.76a6,6,0,0,0-6-6H390.96a6,6,0,0,0,0,12H413.4l-35.769,35.778a6,6,0,1,0,8.486,8.484l36.54-36.55a5.839,5.839,0,0,0,.587-.719V121.04a6,6,0,0,0,12,0Z" style="fill:#63316d"/><path d="M134.372,378.977a6,6,0,0,0-8.485,0l-36.54,36.55a5.839,5.839,0,0,0-.587.719V390.96a6,6,0,0,0-12,0v38.28a6,6,0,0,0,6,6h38.28a6,6,0,0,0,0-12H98.6l35.769-35.778A6,6,0,0,0,134.372,378.977Z" style="fill:#63316d"/><path d="M352.23,353.71a6,6,0,0,0,6-6V280.76h.95a42.825,42.825,0,0,0,0-85.65h-.95V131.63A6,6,0,0,0,350,126.059L212.114,181.22H143.79A33.828,33.828,0,0,0,110,215.01v49.33a33.664,33.664,0,0,0,19.284,30.5l18.522,67.2a33.125,33.125,0,1,0,63.868-17.608L198.916,298.13h13.2L350,353.281A6.015,6.015,0,0,0,352.23,353.71Zm6.95-146.6a30.825,30.825,0,0,1,0,61.65h-.95V207.11ZM207.27,286.13H197.04V193.22h10.23ZM122,264.34V215.01a21.815,21.815,0,0,1,21.79-21.79h41.25v92.91H143.79A21.774,21.774,0,0,1,122,264.34Zm63.352,109.267a21.118,21.118,0,0,1-25.978-14.751l-16.749-60.771c.389.013.774.045,1.165.045h42.68l13.635,49.493A21.154,21.154,0,0,1,185.352,373.607ZM346.23,338.848,219.27,288.067V191.282l126.96-50.789Z" style="fill:#63316d"/></svg>
