<?xml version="1.0"?>
<svg xmlns="http://www.w3.org/2000/svg" viewBox="0 0 64 64" width="512" height="512"><g id="flat"><rect x="3" y="35" width="12" height="16" style="fill:#6caade"/><polygon points="48 13 48 18 42 23 61 23 61 13 48 13" style="fill:#f3bb59"/><polygon points="26 11 37 11 42 16 42 3 26 3 26 11" style="fill:#f3bb59"/><polygon points="61 31 50 31 42 28 45 34 45 41 61 41 61 31" style="fill:#f3bb59"/><polygon points="40 35 33 39 28 39 28 49 40 49 40 35" style="fill:#f3bb59"/><rect x="3" y="15" width="12" height="16" style="fill:#ffd782"/><rect x="3" y="15" width="12" height="4" style="fill:#5a6470"/><path d="M19,35v4H11a2,2,0,0,0,0,4H23V35Z" style="fill:#3b73a5"/><circle cx="21" cy="31" r="2" style="fill:#ffd782"/><polygon points="38 31 24 27 24 23 38 19 38 31" style="fill:#6caade"/><rect x="20" y="23" width="4" height="4" style="fill:#3b73a5"/><rect x="51" y="17" width="2" height="2" style="fill:#fff"/><rect x="56" y="17" width="2" height="2" style="fill:#fff"/><rect x="30" y="6" width="2" height="2" style="fill:#fff"/><rect x="35" y="6" width="2" height="2" style="fill:#fff"/><rect x="5" y="51" width="8" height="10" style="fill:#5a6470"/><rect x="10" y="22" width="2" height="2" style="fill:#5a6470"/><rect x="9" y="27" width="6" height="4" style="fill:#d3843d"/><rect x="31" y="43" width="2" height="2" style="fill:#fff"/><rect x="35" y="43" width="2" height="2" style="fill:#fff"/><rect x="48" y="35" width="2" height="2" style="fill:#fff"/><rect x="52" y="35" width="2" height="2" style="fill:#fff"/><rect x="56" y="35" width="2" height="2" style="fill:#fff"/></g></svg>
