<svg height="512pt" viewBox="-36 0 512 512" width="512pt" xmlns="http://www.w3.org/2000/svg"><path d="m331.894531 207.929688c-.871093-.292969-2.597656-1.425782-3.214843-2.109376l-18.816407-25.527343c.066407.871093.113281 1.75.113281 2.640625v46.425781c4.445313 3.699219 9.964844 6.636719 15.058594 7.8125l70.734375 10.714844 4.488281-29.601563zm0 0" fill="#046699"/><path d="m424.4375 224.390625c-2.761719-.417969-4.691406-2.933594-4.289062-5.585937.402343-2.65625-1.527344-5.171876-4.289063-5.589844l-12.734375-1.929688c-2.761719-.417968-5.359375 1.496094-5.777344 4.257813l-4.066406 26.832031c-.417969 2.757812 1.496094 5.359375 4.257812 5.777344l34.429688 5.214844c2.757812.417968 5.359375-1.5 5.777344-4.257813l2.605468-17.175781c.417969-2.761719-1.5-5.359375-4.257812-5.777344zm0 0" fill="#ffd5b3"/><path d="m148.960938 182.929688c0-.890626.046874-1.765626.109374-2.640626l-18.8125 25.527344c-.617187.6875-2.34375 1.820313-3.214843 2.113282l-68.363281 10.355468 4.484374 29.601563 70.738282-10.714844c5.09375-1.179687 10.613281-4.113281 15.058594-7.8125zm0 0" fill="#046699"/><path d="m34.5 224.390625c2.761719-.417969 4.691406-2.933594 4.289062-5.585937-.402343-2.65625 1.527344-5.171876 4.285157-5.589844l12.738281-1.929688c2.761719-.417968 5.363281 1.496094 5.78125 4.257813l4.066406 26.832031c.417969 2.757812-1.5 5.359375-4.261718 5.777344l-34.425782 5.214844c-2.761718.417968-5.363281-1.5-5.78125-4.257813l-2.601562-17.175781c-.417969-2.761719 1.496094-5.359375 4.257812-5.777344zm0 0" fill="#ffd5b3"/><path d="m310.976562 264.066406v-81.136718c0-19.632813-16.042968-35.609376-35.761718-35.609376h-13.175782v20.984376c0 .574218-.101562 1.914062-1.058593 1.914062-.410157 0-.9375-.214844-1.484375-.605469l-26.566406-19.023437c-1.265626-.90625-2.9375-1.40625-4.707032-1.40625-1.773437 0-3.445312.5-4.710937 1.40625l-26.566407 19.019531c-.542968.394531-1.070312.609375-1.480468.609375-.957032 0-1.0625-1.339844-1.0625-1.914062v-20.984376h-10.675782c-19.722656 0-35.765624 15.976563-35.765624 35.609376v81.136718zm0 0" fill="#ffc502"/><path d="m229.46875 147.761719c-14.101562 0-26.863281-5.757813-36.03125-15.015625-.011719.140625-.035156.28125-.035156.414062v35.144532c0 2.792968 1.859375 3.746093 4.128906 2.121093l26.5625-19.023437c2.269531-1.628906 5.984375-1.628906 8.253906 0l26.566406 19.023437c2.269532 1.625 4.125.671875 4.125-2.121093v-33.230469c-8.929687 7.882812-20.691406 12.6875-33.570312 12.6875zm0 0" fill="#046699"/><path d="m264.742188 0h-93.503907c-2.535156 0-4.589843 2.035156-4.589843 4.546875v67.421875c1.398437-.644531 2.945312-1.011719 4.585937-1.011719h7.734375v-29.628906c0-1.007813.832031-1.824219 1.855469-1.824219h97.289062c1.023438 0 1.855469.816406 1.855469 1.824219v29.628906h7.734375c1.640625 0 3.1875.371094 4.585937 1.015625v-44.703125c0-15.035156-12.355468-27.269531-27.546874-27.269531zm0 0" fill="#775436"/><path d="m178.96875 97.773438v-27.816407h-7.734375c-6.574219 0-11.90625 5.277344-11.90625 11.785157v10.25c0 6.511718 5.332031 11.789062 11.90625 11.789062h8.113281c-.242187-1.972656-.378906-3.972656-.378906-6.007812zm0 0" fill="#f7c39f"/><path d="m287.703125 69.957031h-7.730469v27.816407c0 2.035156-.140625 4.035156-.378906 6.007812h8.109375c6.578125 0 11.90625-5.277344 11.90625-11.789062v-10.25c0-6.507813-5.328125-11.785157-11.90625-11.785157zm0 0" fill="#f7c39f"/><path d="m229.46875 148.761719c-28.394531 0-51.5-22.875-51.5-50.988281v-56.445313c0-1.5625 1.277344-2.824219 2.855469-2.824219h97.289062c1.578125 0 2.859375 1.265625 2.859375 2.824219v56.445313c0 28.113281-23.105468 50.988281-51.503906 50.988281zm0 0" fill="#ffd5b3"/><g fill="#634229"><path d="m234.3125 94.289062h-4.84375c-6.808594 0-12.347656-5.640624-12.347656-12.574218v-11.835938c0-4.144531 3.359375-7.5 7.5-7.5 4.144531 0 7.5 3.355469 7.5 7.5v9.410156h2.191406c4.140625 0 7.5 3.359376 7.5 7.5 0 4.144532-3.355469 7.5-7.5 7.5zm0 0"/><path d="m203.640625 86.371094c-4.144531 0-7.5-3.355469-7.5-7.5v-11.367188c0-4.144531 3.355469-7.5 7.5-7.5 4.140625 0 7.5 3.355469 7.5 7.5v11.367188c0 4.144531-3.359375 7.5-7.5 7.5zm0 0"/><path d="m255.300781 86.371094c-4.144531 0-7.5-3.355469-7.5-7.5v-11.367188c0-4.144531 3.355469-7.5 7.5-7.5 4.140625 0 7.5 3.355469 7.5 7.5v11.367188c0 4.144531-3.359375 7.5-7.5 7.5zm0 0"/></g><path d="m228.222656 128.273438c-10.804687 0-19.589844-8.785157-19.589844-19.585938 0-2.003906 1.621094-3.625 3.625-3.625h31.925782c2.003906 0 3.628906 1.621094 3.628906 3.625 0 10.800781-8.789062 19.585938-19.589844 19.585938zm0 0" fill="#fb8276"/><path d="m131.871094 314.535156h195.195312v183.464844h-195.195312zm0 0" fill="#d19546"/><path d="m200.414062 264.066406v-45.824218c0-7.058594 5.179688-12.800782 11.539063-12.800782h3.808594c-1.121094-2.265625-1.769531-4.804687-1.769531-7.5 0-2.695312.648437-5.234375 1.769531-7.5h-3.808594c-14.632813 0-26.539063 12.472656-26.539063 27.800782v45.824218zm0 0" fill="#424f59"/><path d="m248.992188 197.941406c0 9.941406-8.058594 18-18 18-9.941407 0-18-8.058594-18-18s8.058593-18 18-18c9.941406 0 18 8.058594 18 18zm0 0" fill="#242b30"/><path d="m358.734375 310.460938c0 2.792968-2.285156 5.074218-5.078125 5.074218h-248.375c-2.792969 0-5.078125-2.28125-5.078125-5.074218v-42.320313c0-2.789063 2.285156-5.074219 5.078125-5.074219h248.375c2.792969 0 5.078125 2.285156 5.078125 5.074219zm0 0" fill="#775436"/><path d="m354.371094 512h-249.804688c-4.140625 0-7.5-3.355469-7.5-7.5s3.359375-7.5 7.5-7.5h249.804688c4.140625 0 7.5 3.355469 7.5 7.5s-3.355469 7.5-7.5 7.5zm0 0" fill="#775436"/><path d="m147.4375 52.941406c2.417969-1.394531 2.417969-3.679687 0-5.074218l-10.683594-6.167969c-2.417968-1.394531-4.394531-4.820313-4.394531-7.609375v-20.386719c0-2.792969-2.285156-5.074219-5.078125-5.074219h-122.203125c-2.792969 0-5.078125 2.28125-5.078125 5.074219v71.425781c0 2.792969 2.285156 5.074219 5.078125 5.074219h122.203125c2.792969 0 5.078125-2.28125 5.078125-5.074219v-18.410156c0-2.789062 1.980469-6.214844 4.394531-7.613281zm0 0" fill="#d9fffd"/><path d="m106.613281 37.445312h-82.921875c-4.140625 0-7.5-3.355468-7.5-7.5 0-4.144531 3.359375-7.5 7.5-7.5h82.921875c4.140625 0 7.5 3.355469 7.5 7.5 0 4.144532-3.359375 7.5-7.5 7.5zm0 0" fill="#64cbff"/><path d="m106.613281 56.730469h-82.921875c-4.140625 0-7.5-3.355469-7.5-7.5 0-4.140625 3.359375-7.5 7.5-7.5h82.921875c4.140625 0 7.5 3.359375 7.5 7.5 0 4.144531-3.359375 7.5-7.5 7.5zm0 0" fill="#64cbff"/><path d="m71.230469 76.019531h-47.539063c-4.140625 0-7.5-3.359375-7.5-7.5 0-4.144531 3.359375-7.5 7.5-7.5h47.539063c4.144531 0 7.5 3.355469 7.5 7.5 0 4.140625-3.355469 7.5-7.5 7.5zm0 0" fill="#64cbff"/><path d="m229.46875 454.890625c-1.484375 0-2.972656-.566406-4.109375-1.695313l-48.695313-48.496093c-11.21875-11.171875-11.21875-29.347657 0-40.519531 5.433594-5.410157 12.65625-8.390626 20.34375-8.390626 7.679688 0 14.90625 2.980469 20.339844 8.390626l12.121094 12.074218 12.125-12.074218c5.433594-5.410157 12.65625-8.390626 20.339844-8.390626s14.910156 2.980469 20.34375 8.390626c11.21875 11.171874 11.21875 29.347656 0 40.519531l-48.699219 48.496093c-1.136719 1.128907-2.625 1.695313-4.109375 1.695313zm0 0" fill="#fb8276"/><path d="m205.933594 403.042969c-4.140625 0-7.5-3.355469-7.5-7.5v-9.644531c0-4.144532 3.359375-7.5 7.5-7.5s7.5 3.355468 7.5 7.5v9.644531c0 4.144531-3.355469 7.5-7.5 7.5zm0 0" fill="#960b15"/><path d="m253.003906 403.042969c-4.144531 0-7.5-3.355469-7.5-7.5v-9.644531c0-4.144532 3.355469-7.5 7.5-7.5 4.140625 0 7.5 3.355468 7.5 7.5v9.644531c0 4.144531-3.359375 7.5-7.5 7.5zm0 0" fill="#960b15"/><path d="m229.46875 430.449219c-10.242188 0-18.574219-8.3125-18.574219-18.527344 0-4.144531 3.359375-7.5 7.5-7.5 4.144531 0 7.5 3.355469 7.5 7.5 0 1.945313 1.605469 3.527344 3.574219 3.527344 1.972656 0 3.574219-1.582031 3.574219-3.527344 0-4.144531 3.359375-7.5 7.5-7.5 4.144531 0 7.5 3.355469 7.5 7.5 0 10.214844-8.332031 18.527344-18.574219 18.527344zm0 0" fill="#960b15"/></svg>